<?xml version="1.0" encoding="utf-8"?><!DOCTYPE svg PUBLIC "-//W3C//DTD SVG 1.1//EN" "http://www.w3.org/Graphics/SVG/1.1/DTD/svg11.dtd"><svg version="1.1" xmlns:rdf="http://www.w3.org/1999/02/22-rdf-syntax-ns#" xmlns:cc="http://creativecommons.org/ns#" xmlns:sodipodi="http://sodipodi.sourceforge.net/DTD/sodipodi-0.dtd" xmlns:dc="http://purl.org/dc/elements/1.1/" xmlns:inkscape="http://www.inkscape.org/namespaces/inkscape" xmlns:svg="http://www.w3.org/2000/svg" xmlns="http://www.w3.org/2000/svg" xmlns:xlink="http://www.w3.org/1999/xlink" x="0px" y="0px" viewBox="0 14.006 100 89.985" enable-background="new 0 14.006 100 71.988" xml:space="preserve"><path d="M99.706,48.838L80.27,15.183c-0.408-0.715-1.22-1.183-2.042-1.177H39.374c-0.817,0-1.617,0.467-2.021,1.177L17.927,48.838
	c-0.408,0.705-0.408,1.628,0,2.333l19.426,33.666c0.41,0.7,1.208,1.158,2.021,1.156h38.854c0.818,0.01,1.628-0.449,2.042-1.156
	l19.437-33.666c0.187-0.339,0.288-0.727,0.292-1.115c0.003-0.073,0.003-0.146,0-0.219C99.978,49.489,99.876,49.144,99.706,48.838z
	 M73.551,17.006c0.92,0,1.666,0.746,1.666,1.667s-0.746,1.667-1.666,1.667c-0.922,0-1.668-0.746-1.668-1.667
	S72.629,17.006,73.551,17.006z M58.812,17.006c0.92,0,1.665,0.746,1.665,1.667s-0.745,1.667-1.665,1.667
	c-0.921,0-1.667-0.746-1.667-1.667S57.891,17.006,58.812,17.006z M44.062,17.006c0.92,0,1.667,0.746,1.667,1.667
	s-0.746,1.667-1.667,1.667s-1.667-0.746-1.667-1.667S43.141,17.006,44.062,17.006z M44.062,83.004c-0.92,0-1.667-0.747-1.667-1.666
	c0-0.921,0.747-1.667,1.667-1.667s1.667,0.746,1.667,1.667C45.728,82.257,44.982,83.004,44.062,83.004z M58.812,83.004
	c-0.921,0-1.667-0.747-1.667-1.666c0-0.921,0.746-1.667,1.667-1.667c0.92,0,1.665,0.746,1.665,1.667
	C60.477,82.257,59.731,83.004,58.812,83.004z M73.551,83.004c-0.922,0-1.668-0.747-1.668-1.666c0-0.921,0.746-1.667,1.668-1.667
	c0.92,0,1.666,0.746,1.666,1.667C75.217,82.257,74.471,83.004,73.551,83.004z M90.102,50.714L75.217,76.671H42.395l-14.78-25.197
	c-0.361-0.629-0.405-1.429-0.115-2.093l14.895-26.041h32.822l14.812,25.197c0.195,0.338,0.305,0.725,0.312,1.114
	C90.347,50.018,90.263,50.384,90.102,50.714z"/><path d="M84.009,41.412h-50.02l-4.458,7.718c-0.408,0.705-0.408,1.628,0,2.333l4.114,7.124h50.008l4.459-7.729
	c0.195-0.338,0.304-0.725,0.312-1.114c0.01-0.425-0.101-0.852-0.312-1.219L84.009,41.412z"/><path d="M16.01,48.838l4.521-7.833H12.01v2.333H0v13.333h12.01v2.322h8.521l-4.521-7.822C15.593,50.45,15.593,49.561,16.01,48.838z"/>></svg>
