<svg xmlns:dc="http://purl.org/dc/elements/1.1/" xmlns:cc="http://creativecommons.org/ns#" xmlns:rdf="http://www.w3.org/1999/02/22-rdf-syntax-ns#" xmlns:svg="http://www.w3.org/2000/svg" xmlns="http://www.w3.org/2000/svg" xmlns:sodipodi="http://sodipodi.sourceforge.net/DTD/sodipodi-0.dtd" xmlns:inkscape="http://www.inkscape.org/namespaces/inkscape" version="1.1" x="0px" y="0px" viewBox="0 0 100 125"><g transform="translate(0,-952.36218)"><path style="text-indent:0;text-transform:none;direction:ltr;block-progression:tb;baseline-shift:baseline;color:#000000;enable-background:accumulate;" d="m 25.970129,977.24716 a 0.77212108,0.77212108 0 0 0 -0.69483,0.7142 0.77212108,0.77212108 0 0 0 0,0.058 l 0,9.7277 0,23.77904 0,9.7277 a 0.77212108,0.77212108 0 0 0 0,0.077 0.77212108,0.77212108 0 0 0 0.772033,0.6949 l 4.265563,0 a 0.77212108,0.77212108 0 0 0 0.772065,-0.7721 l 0,-10.1234 5.01828,-4.0146 0,-14.95844 -5.01828,-4.0146 0,-10.1234 a 0.77212108,0.77212108 0 0 0 -0.772065,-0.7721 l -4.265563,0 a 0.77212108,0.77212108 0 0 0 -0.0772,0 z m 50.617141,0 a 0.77212108,0.77212108 0 0 0 -0.714147,0.7721 l 0,10.1234 -5.01828,4.0146 0,14.95844 5.01828,4.0146 0,10.1234 a 0.77212108,0.77212108 0 0 0 0.772065,0.7721 l 4.265532,0 a 0.77212108,0.77212108 0 0 0 0.772033,-0.6949 0.77212108,0.77212108 0 0 0 0,-0.077 l 0,-9.7277 0,-23.77904 0,-9.7277 a 0.77212108,0.77212108 0 0 0 0,-0.058 0.77212108,0.77212108 0 0 0 -0.69483,-0.7142 0.77212108,0.77212108 0 0 0 -0.0772,0 l -4.265532,0 a 0.77212108,0.77212108 0 0 0 -0.05792,0 z m -58.47266,10.4998 c -2.980561,0 -5.404296,2.4237 -5.404296,5.4043 l 0,2.6539 c 1.909278,0.2328 3.38732,1.8592 3.38732,3.8313 0,1.97214 -1.478042,3.59844 -3.38732,3.83134 l 0,2.6539 c 0,2.9806 2.423735,5.4043 5.404296,5.4043 l 5.15337,0 0,-23.77904 -5.15337,0 z m 65.575462,0 0,23.77904 5.153401,0 c 2.980594,0 5.404297,-2.4237 5.404297,-5.4043 l 0,-2.6539 c -1.909278,-0.2329 -3.387352,-1.8592 -3.387352,-3.83134 0,-1.9721 1.478074,-3.5985 3.387352,-3.8313 l 0,-2.6539 c 0,-2.9806 -2.423703,-5.4043 -5.404297,-5.4043 l -5.153401,0 z m -45.579513,4.4103 0,14.95844 30.736965,0 0,-14.95844 -30.736965,0 z m -30.978299,2.8469 c -2.54916,0 -4.63226,2.0831 -4.63226,4.6323 0,0.86384 0.27335,1.65354 0.6852,2.34514 l 0,6.1956 a 0.77212108,0.77212108 0 0 0 0.0291,0.2123 l 5.41392,18.5291 a 0.77212108,0.77212108 0 0 0 0.74309,0.5597 l 0.92644,0 a 0.77212108,0.77212108 0 0 0 0.77206,-0.772 l -0.0675,-23.4122 c -1.52618,-0.5152 -2.62495,-1.9577 -2.62495,-3.65764 0,-1.4331 0.78021,-2.6828 1.93978,-3.3487 -0.83189,-0.7916 -1.95184,-1.2836 -3.18472,-1.2836 z m 5.10514,1.853 c -1.53501,0 -2.77935,1.2443 -2.77935,2.7793 0,1.53504 1.24441,2.77934 2.77935,2.77944 1.535045,-10e-5 2.779387,-1.2444 2.779387,-2.77944 0,-1.535 -1.244342,-2.7793 -2.779387,-2.7793 z m 82.483248,0 c -1.53501,0 -2.779351,1.2443 -2.779351,2.7793 0,1.53504 1.244341,2.77934 2.779351,2.77944 1.534979,-10e-5 2.779352,-1.2444 2.779352,-2.77944 0,-1.535 -1.24431,-2.7793 -2.779352,-2.7793 z" fill="#000000" fill-opacity="1" fill-rule="evenodd" stroke="none" marker="none" visibility="visible" display="inline" overflow="visible"/></g></svg>
