<svg xmlns="http://www.w3.org/2000/svg" xmlns:xlink="http://www.w3.org/1999/xlink" version="1.1" x="0px" y="0px" viewBox="0 0 100 125" enable-background="new 0 0 100 100" xml:space="preserve"><g><path d="M48.7,73.293c-0.113,0.053-0.191,0.09-0.191,0.09C48.528,73.383,48.594,73.352,48.7,73.293z"/><path d="M48.7,73.293c1.332-0.622,10.133-4.458,17.927-1.118c0,0,6.643,3.021,11.475-2.415c0,0,13.89-12.078,13.89-13.891   l-0.604-1.207c0,0-16.909,15.701-18.722,10.267c0,0-1.666-2.929,22.345-20.533l-0.604-1.208   C94.407,43.188,51.947,71.493,48.7,73.293z"/><path d="M95.615,35.94c0-1.208-1.208-3.02-1.208-3.02C29,5,17.994,51.427,17.649,51.824l-2.959,8.877c0,0,13.31-3.701,3.624,1.812   l-4.831,2.416l0.604,1.812c0,0,18.722,3.623,25.365,1.812c0,0,2.416-0.604,2.416,2.416c0,0,0.134,4.032-8.781,3.826   c8.335,6.231,15.424-2.619,15.424-2.619C52,69,95.615,35.94,95.615,35.94z M91.991,32.921C36,21,20.444,48.134,19.521,49.83   C39,14,90.482,32.6,91.991,32.921z M18.917,54.359c4.547-4.916,9.857-4.089,9.059-1.51C27.298,55.043,10,64,18.917,54.359z    M18.917,65.13c0,0-2.917-3.13,15.098-6.845C34.015,58.285,23.749,67.144,18.917,65.13z M21.937,48.019   c0,0,16.306-21.137,58.58-13.89C80.517,34.128,49.717,32.317,21.937,48.019z M36.431,50.435c3.6-7.818,37.944-17.32,33.216-9.059   C67,46,32.288,59.431,36.431,50.435z M40.658,66.136c-2.024-5.829,33.896-24.213,34.424-20.533C76,52,42,70,40.658,66.136z"/><path d="M35.377,71.81c0.149-2.596-2.085-2.204-2.085-2.204C27,70,10.234,66.714,10.234,66.714l-0.461-1.59l4.529-1.823   c6.212-2.248-3.217-1.749-3.217-1.749l3.204-7.633L4.962,62.24c-2.965,3.479,1.115,9.445,1.115,9.445   c25.202,4.059,24.711,2.986,24.711,2.986C35.228,74.407,35.377,71.81,35.377,71.81z"/></g>></svg>
