<svg xmlns="http://www.w3.org/2000/svg" xmlns:xlink="http://www.w3.org/1999/xlink" version="1.1" x="0px" y="0px" viewBox="0 0 100 125" enable-background="new 0 0 100 100" xml:space="preserve"><path d="M47.5,54.331c0.76,0.438,1.623,0.67,2.496,0.67c1.783,0,3.443-0.958,4.334-2.501c1.378-2.388,0.557-5.451-1.83-6.831  c-0.76-0.438-1.623-0.67-2.496-0.67c-1.783,0-3.443,0.958-4.334,2.501C44.292,49.888,45.113,52.951,47.5,54.331z M47.835,48.75  c0.445-0.771,1.276-1.251,2.169-1.251c0.435,0,0.866,0.116,1.246,0.335c1.194,0.69,1.604,2.223,0.916,3.416  c-0.663,1.147-2.257,1.584-3.415,0.916C47.557,51.476,47.146,49.943,47.835,48.75z"/><path d="M33.75,16.854c-2.757,0-5,2.243-5,5s2.243,5,5,5s5-2.243,5-5S36.507,16.854,33.75,16.854z M33.75,24.354  c-1.378,0-2.5-1.121-2.5-2.5s1.122-2.5,2.5-2.5s2.5,1.121,2.5,2.5S35.128,24.354,33.75,24.354z"/><path d="M66.25,26.854c2.757,0,5-2.243,5-5s-2.243-5-5-5s-5,2.243-5,5S63.493,26.854,66.25,26.854z M66.25,19.354  c1.378,0,2.5,1.121,2.5,2.5s-1.122,2.5-2.5,2.5s-2.5-1.121-2.5-2.5S64.872,19.354,66.25,19.354z"/><path d="M89.565,39.715c-1.784-1.269-3.82-2.034-5.951-2.26c-1.285-1.01-2.357-2.195-3.159-3.536l-1.434-2.398  c-0.784-1.311-1.316-2.78-1.603-4.349c1.09-2.195,1.541-4.686,1.227-7.172c-0.733-5.808-5.503-10.371-11.342-10.851  c-3.125-0.256-6.088,0.61-8.539,2.45c-2.331,1.75-4.919,2.695-7.483,2.734l-2.962,0.045c-2.51,0-5.067-0.867-7.396-2.507  c-2.5-1.758-5.544-2.529-8.61-2.187c-5.822,0.66-10.45,5.367-11.004,11.193c-0.224,2.357,0.204,4.641,1.201,6.684  c-0.302,1.423-0.814,2.756-1.533,3.959l-1.434,2.398c-0.802,1.34-1.874,2.526-3.159,3.536c-2.13,0.227-4.166,0.991-5.95,2.26  c-4.77,3.394-6.532,9.756-4.192,15.127c1.229,2.82,3.431,5.08,6.2,6.363c2.645,1.226,4.703,3.057,5.95,5.297l1.36,2.441  c1.248,2.24,1.723,4.954,1.373,7.848c-0.367,3.03,0.396,6.092,2.148,8.62c2.321,3.353,6.174,5.354,10.306,5.354  c1.652,0,3.254-0.321,4.762-0.955c3.295-1.387,5.85-4.105,7.007-7.461c1.036-3.004,0.876-6.282-0.405-9.16  c0.306-1.865,0.915-3.6,1.829-5.128l0.932-1.56c1.555-2.6,4.032-4.722,7.163-6.138c2.09-0.944,3.82-2.487,5.002-4.463  c1.64-2.742,2.036-6.065,1.086-9.119c-0.949-3.05-3.172-5.567-6.101-6.905c-1.443-0.66-2.989-0.994-4.596-0.994  c-3.585,0-6.978,1.694-9.075,4.533c-1.646,2.229-2.417,4.961-2.171,7.695c0.285,3.168-0.332,6.126-1.785,8.556l-1.434,2.398  c-0.366,0.611-0.786,1.192-1.257,1.738c-0.757-0.796-1.402-1.661-1.918-2.587l-0.884-1.587c-1.349-2.421-1.896-5.374-1.582-8.54  c0.237-2.385-0.22-4.754-1.308-6.885c0.339-1.548,0.902-2.992,1.678-4.29l0.932-1.559c0.852-1.424,1.989-2.699,3.351-3.799  c2.243-0.188,4.377-0.97,6.213-2.289c2.584-1.854,5.416-2.858,8.187-2.9l2.006-0.029c2.71,0,5.505,0.916,8.083,2.65  c1.555,1.045,3.304,1.717,5.136,1.984c1.708,1.221,3.106,2.7,4.113,4.383l0.932,1.559c0.776,1.298,1.338,2.742,1.678,4.29  c-1.088,2.132-1.545,4.5-1.308,6.885c0.314,3.166-0.232,6.119-1.581,8.54l-0.885,1.587c-1.349,2.423-3.572,4.442-6.429,5.841  c-2.291,1.121-4.16,2.895-5.405,5.129c-1.728,3.101-2.054,6.805-0.896,10.163c1.157,3.355,3.711,6.074,7.007,7.461  c1.508,0.634,3.11,0.955,4.762,0.955c4.132,0,7.985-2.001,10.306-5.353c1.752-2.529,2.515-5.591,2.148-8.62  c-0.35-2.895,0.125-5.608,1.373-7.849l1.36-2.441c1.248-2.24,3.305-4.071,5.95-5.297c2.769-1.283,4.971-3.543,6.2-6.363  C96.097,49.471,94.334,43.108,89.565,39.715z M75.879,66.51c-1.765,3.169-2.446,6.932-1.969,10.883  c0.22,1.813-0.24,3.65-1.294,5.173c-1.388,2.003-3.704,3.199-6.196,3.199c-0.982,0-1.933-0.189-2.823-0.564  c-2.016-0.848-3.514-2.439-4.219-4.482c-0.695-2.016-0.5-4.238,0.537-6.099c0.746-1.339,1.864-2.401,3.235-3.072  c3.777-1.849,6.751-4.58,8.599-7.897l0.884-1.587c1.848-3.316,2.604-7.282,2.189-11.468c-0.151-1.519,0.163-3.028,0.909-4.367  c1.323-2.376,3.837-3.852,6.561-3.852c1.563,0,3.075,0.488,4.374,1.413c2.808,1.998,3.886,5.891,2.507,9.055  c-0.75,1.723-2.036,3.045-3.717,3.824c-3.61,1.673-6.451,4.231-8.217,7.4L75.879,66.51z M41.503,50.886  c-0.191-2.124,0.41-4.25,1.692-5.985c1.628-2.203,4.269-3.519,7.064-3.519c1.245,0,2.442,0.258,3.557,0.768  c2.316,1.059,4.004,2.968,4.753,5.375c0.739,2.375,0.431,4.96-0.844,7.093c-0.918,1.535-2.262,2.734-3.886,3.469  c-3.599,1.626-6.462,4.093-8.279,7.132l-0.932,1.56c-0.641,1.072-1.15,2.228-1.539,3.443c-1.108-1.317-2.472-2.397-4.04-3.164  c-0.954-0.467-1.83-1.009-2.634-1.606c0.57-0.66,1.081-1.361,1.525-2.103l1.434-2.398C41.099,58.063,41.835,54.584,41.503,50.886z   M36.85,71.547c1.371,0.671,2.489,1.733,3.235,3.072c1.037,1.86,1.232,4.083,0.537,6.099c-0.705,2.043-2.203,3.635-4.219,4.482  c-0.891,0.375-1.841,0.564-2.823,0.564c-2.492,0-4.808-1.196-6.196-3.2c-1.054-1.521-1.514-3.358-1.294-5.173  c0.478-3.95-0.204-7.713-1.969-10.882l-1.36-2.441c-1.766-3.169-4.607-5.728-8.217-7.4c-1.681-0.779-2.967-2.102-3.717-3.824  c-1.379-3.164-0.301-7.057,2.507-9.055c1.299-0.925,2.812-1.413,4.374-1.413c2.723,0,5.237,1.476,6.561,3.852  c0.746,1.339,1.06,2.849,0.909,4.367c-0.416,4.186,0.341,8.151,2.189,11.468l0.884,1.587C30.099,66.967,33.073,69.698,36.85,71.547z   M28.377,38.631c-0.546,0.913-0.991,1.891-1.354,2.911c-1.858-2.072-4.362-3.472-7.113-3.964c0.67-0.739,1.272-1.528,1.779-2.376  l1.434-2.398c0.476-0.796,0.869-1.641,1.193-2.519c0.064,0.074,0.119,0.153,0.185,0.225c1.822,2.003,4.242,3.34,6.861,3.853  c-0.78,0.842-1.474,1.743-2.052,2.71L28.377,38.631z M38.104,28.206c-1.24,0.89-2.705,1.373-4.237,1.396l-0.117,0.001  c-2.106,0-4.129-0.896-5.55-2.457c-1.438-1.582-2.118-3.64-1.913-5.795c0.326-3.43,3.159-6.31,6.589-6.698  c0.296-0.034,0.588-0.05,0.878-0.05c1.545,0,3.03,0.469,4.292,1.356c3.175,2.236,6.728,3.418,10.273,3.418l3.039-0.045  c3.628-0.056,7.227-1.348,10.409-3.736c1.469-1.103,3.247-1.62,5.127-1.466c3.44,0.283,6.36,3.074,6.791,6.494  c0.274,2.17-0.355,4.263-1.772,5.895c-1.398,1.61-3.421,2.552-5.551,2.584l-0.121,0.001c-1.487,0-2.924-0.438-4.157-1.266  c-3.406-2.29-7.166-3.501-10.873-3.501l-2.083,0.029C45.334,24.426,41.521,25.753,38.104,28.206z M75.562,29.929  c0.344,1.007,0.775,1.973,1.314,2.875l1.434,2.398c0.507,0.847,1.109,1.636,1.779,2.376c-2.751,0.492-5.256,1.892-7.113,3.964  c-0.363-1.02-0.808-1.998-1.354-2.911l-0.932-1.559c-0.677-1.132-1.5-2.184-2.451-3.144C71.05,33.473,73.644,32.074,75.562,29.929z"/><path d="M80,54.331c0.76,0.438,1.623,0.67,2.496,0.67c1.783,0,3.443-0.958,4.334-2.501c1.378-2.388,0.557-5.451-1.83-6.831  c-0.76-0.438-1.623-0.67-2.496-0.67c-1.783,0-3.443,0.958-4.334,2.501C76.792,49.888,77.613,52.951,80,54.331z M80.335,48.75  c0.445-0.771,1.276-1.251,2.169-1.251c0.435,0,0.866,0.116,1.246,0.335c1.194,0.69,1.604,2.223,0.916,3.416  c-0.662,1.147-2.256,1.584-3.415,0.916C80.057,51.476,79.646,49.943,80.335,48.75z"/><path d="M68.75,73.816c-0.76-0.439-1.624-0.671-2.497-0.671c-1.782,0-3.442,0.958-4.333,2.5c-1.378,2.388-0.557,5.451,1.83,6.831  c0.76,0.438,1.623,0.67,2.496,0.67c1.783,0,3.443-0.958,4.334-2.501c0.668-1.156,0.845-2.504,0.5-3.794S69.906,74.483,68.75,73.816z   M68.415,79.396c-0.662,1.147-2.257,1.584-3.415,0.916c-1.194-0.69-1.604-2.223-0.916-3.416c0.445-0.771,1.276-1.25,2.168-1.25  c0.435,0,0.866,0.115,1.247,0.336c0.578,0.333,0.992,0.872,1.165,1.518C68.837,78.144,68.749,78.817,68.415,79.396z"/><path d="M21.83,47.5c-0.891-1.543-2.551-2.501-4.334-2.501c-0.873,0-1.736,0.231-2.497,0.671c-2.387,1.379-3.208,4.442-1.83,6.83  c0.891,1.542,2.551,2.501,4.333,2.501c0,0,0,0,0,0c0.874,0,1.736-0.231,2.497-0.671C22.387,52.951,23.208,49.888,21.83,47.5z   M15.335,51.25c-0.689-1.193-0.278-2.726,0.915-3.415c0.38-0.22,0.811-0.336,1.246-0.336c0.893,0,1.724,0.479,2.169,1.251  c0.689,1.193,0.278,2.726-0.915,3.415c-0.38,0.22-0.811,0.336-1.246,0.336C16.611,52.501,15.78,52.021,15.335,51.25z"/><path d="M28.92,76.852c-0.346,1.29-0.168,2.638,0.5,3.794c0.891,1.542,2.551,2.501,4.333,2.501c0,0,0,0,0,0  c0.874,0,1.736-0.231,2.497-0.671c2.387-1.379,3.208-4.442,1.83-6.83c-0.891-1.542-2.551-2.5-4.333-2.5  c-0.874,0-1.737,0.231-2.497,0.67C30.094,74.483,29.266,75.562,28.92,76.852z M35.915,76.896c0.689,1.193,0.278,2.726-0.915,3.415  c-0.38,0.22-0.811,0.336-1.246,0.336c-0.893,0-1.724-0.479-2.169-1.251c-0.334-0.578-0.422-1.252-0.25-1.896  c0.173-0.646,0.586-1.185,1.165-1.519c0.38-0.22,0.811-0.335,1.246-0.335C34.639,75.646,35.47,76.124,35.915,76.896z"/><text x="0" y="115" fill="#000000" font-size="5px" font-weight="bold" font-family="'Helvetica Neue', Helvetica, Arial-Unicode, Arial, Sans-serif">Created by Arthur Shlain</text><text x="0" y="120" fill="#000000" font-size="5px" font-weight="bold" font-family="'Helvetica Neue', Helvetica, Arial-Unicode, Arial, Sans-serif">from the Noun Project</text></svg>