<svg xmlns="http://www.w3.org/2000/svg" xmlns:xlink="http://www.w3.org/1999/xlink" version="1.1" x="0px" y="0px" viewBox="0 0 100 125" enable-background="new 0 0 100 100" xml:space="preserve"><g><path fill="#000000" d="M93.514,53.506l2.115-1.221l-0.002-2.483l-2.113-1.223c-0.051-0.896-0.134-1.782-0.236-2.663l1.873-1.573   l-0.433-2.446l-2.294-0.836c-0.205-0.874-0.431-1.739-0.688-2.592l1.564-1.864l-0.851-2.333l-2.394-0.424   c-0.355-0.825-0.74-1.631-1.143-2.429l1.221-2.114l-1.242-2.15l-2.444-0.001c-0.491-0.748-0.995-1.485-1.53-2.199l0.834-2.289   l-1.6-1.901l-2.414,0.423c-0.608-0.647-1.237-1.276-1.885-1.885l0.428-2.415l-1.904-1.595l-2.29,0.831   c-0.715-0.535-1.45-1.04-2.198-1.531v-2.445l-2.15-1.24l-2.114,1.219c-0.799-0.403-1.604-0.788-2.429-1.142L66.771,8.59   l-2.332-0.848l-1.867,1.563c-0.854-0.257-1.719-0.482-2.592-0.688l-0.834-2.296L56.7,5.893l-1.574,1.874   c-0.88-0.103-1.767-0.187-2.663-0.237l-1.221-2.115h-2.483L47.537,7.53c-0.896,0.05-1.783,0.134-2.665,0.237L43.3,5.892   l-2.446,0.432l-0.835,2.294c-0.875,0.205-1.74,0.431-2.593,0.688l-1.864-1.565l-2.333,0.851l-0.423,2.393   c-0.825,0.355-1.632,0.74-2.43,1.143l-2.113-1.221l-2.151,1.243l-0.001,2.443c-0.748,0.491-1.485,0.997-2.2,1.531l-2.288-0.833   l-1.902,1.597l0.425,2.414c-0.648,0.609-1.276,1.238-1.886,1.886l-2.414-0.427l-1.596,1.904l0.832,2.288   c-0.535,0.714-1.041,1.452-1.532,2.2h-2.444l-1.241,2.152l1.22,2.114c-0.403,0.797-0.788,1.605-1.143,2.429L7.548,34.27   l-0.849,2.334l1.564,1.865c-0.257,0.854-0.483,1.719-0.688,2.593L5.28,41.896l-0.43,2.447l1.874,1.573   c-0.103,0.881-0.187,1.768-0.236,2.664L4.372,49.8v2.485l2.115,1.221c0.049,0.896,0.133,1.783,0.236,2.664l-1.875,1.572   l0.432,2.445l2.294,0.836c0.205,0.875,0.431,1.74,0.688,2.594L6.698,65.48l0.851,2.334l2.394,0.424   c0.354,0.824,0.739,1.632,1.142,2.428l-1.222,2.115l1.243,2.15h2.444c0.491,0.748,0.996,1.484,1.531,2.198l-0.833,2.29l1.598,1.902   l2.415-0.426c0.609,0.647,1.238,1.275,1.885,1.886l-0.427,2.415l1.904,1.595l2.289-0.831c0.714,0.534,1.451,1.04,2.199,1.53v2.444   l2.152,1.24l2.115-1.22c0.796,0.401,1.604,0.788,2.429,1.142l0.421,2.396l2.334,0.849l1.866-1.562   c0.853,0.257,1.718,0.481,2.592,0.688l0.834,2.297l2.446,0.43l1.575-1.873c0.88,0.103,1.767,0.187,2.663,0.236l1.222,2.114h2.483   l1.221-2.114c0.896-0.051,1.783-0.135,2.665-0.238l1.572,1.875l2.445-0.43l0.836-2.297c0.875-0.205,1.74-0.432,2.594-0.688   l1.863,1.563l2.334-0.85l0.422-2.396c0.824-0.354,1.634-0.738,2.43-1.142l2.116,1.222l2.147-1.242v-2.444   c0.75-0.49,1.484-0.996,2.199-1.53l2.29,0.832l1.901-1.596l-0.424-2.415c0.647-0.609,1.274-1.237,1.883-1.886l2.418,0.426   l1.595-1.902l-0.832-2.29c0.535-0.714,1.039-1.45,1.53-2.198h2.445l1.239-2.149l-1.219-2.116c0.401-0.796,0.786-1.604,1.142-2.428   l2.395-0.424L93.3,65.48l-1.563-1.865c0.258-0.852,0.482-1.717,0.688-2.592l2.296-0.836l0.432-2.444l-1.873-1.574   C93.38,55.288,93.463,54.4,93.514,53.506z M84.635,40.74c-0.818,1.726-2.85,3.122-5.386,3.469   c-1.931,0.264-3.744-0.136-5.056-0.977l-0.002,0.208c-2.478-7.896-8.715-14.127-16.613-16.598   c-0.975-1.401-1.371-3.467-0.909-5.619c0.487-2.275,1.812-4.061,3.386-4.886C71.84,19.746,81.145,28.988,84.635,40.74z    M76.686,51.043c0,1.355-1.104,2.456-2.459,2.456c-1.354,0-2.457-1.101-2.457-2.456c0-1.357,1.103-2.458,2.457-2.458   C75.582,48.585,76.686,49.686,76.686,51.043z M50,77.729c-1.357,0-2.457-1.103-2.457-2.459c0-1.355,1.1-2.455,2.457-2.455   c1.357,0,2.457,1.1,2.457,2.455C52.457,76.626,51.355,77.729,50,77.729z M50,69.875c-10.401,0-18.832-8.434-18.832-18.833   c0-10.4,8.431-18.832,18.832-18.832c10.4,0,18.833,8.431,18.833,18.832C68.833,61.443,60.4,69.875,50,69.875z M50,24.359   c1.357,0,2.457,1.1,2.457,2.457s-1.1,2.457-2.457,2.457c-1.357,0-2.457-1.101-2.457-2.457S48.643,24.359,50,24.359z M39.697,16.408   c1.726,0.819,3.122,2.849,3.469,5.385c0.264,1.931-0.136,3.746-0.977,5.056l0.208,0.001c-7.887,2.477-14.114,8.703-16.59,16.59   l-0.001-0.208c-1.31,0.841-3.125,1.241-5.056,0.977c-2.536-0.348-4.565-1.743-5.385-3.469   C18.831,29.071,28.028,19.874,39.697,16.408z M28.23,51.043c0,1.355-1.101,2.456-2.457,2.456c-1.357,0-2.457-1.101-2.457-2.456   c0-1.357,1.1-2.458,2.457-2.458C27.129,48.585,28.23,49.686,28.23,51.043z M15.294,61.096c0.825-1.574,2.61-2.896,4.886-3.384   c2.152-0.462,4.218-0.063,5.619,0.909c2.471,7.898,8.703,14.136,16.599,16.613l-0.208,0.002c0.841,1.311,1.241,3.125,0.977,5.056   c-0.348,2.536-1.744,4.567-3.469,5.386C27.945,82.188,18.703,72.882,15.294,61.096z M60.055,85.749   c-1.574-0.826-2.897-2.612-3.386-4.886c-0.462-2.153-0.063-4.219,0.909-5.62c7.906-2.474,14.148-8.716,16.622-16.622   c1.401-0.975,3.467-1.371,5.62-0.909c2.273,0.487,4.06,1.81,4.886,3.384C81.273,72.966,71.922,82.314,60.055,85.749z"/></g>></svg>
