<svg xmlns="http://www.w3.org/2000/svg" xmlns:xlink="http://www.w3.org/1999/xlink" version="1.1" x="0px" y="0px" viewBox="0 0 90 112.5" style="enable-background:new 0 0 90 90;" xml:space="preserve"><path d="M17.2,70.8c8.2,0,15-5.7,16.7-13.4l5.5,0.9c0.1,0,0.1,0,0.2,0c0,0,0,0,0,0c0.1,0,0.2,0,0.3-0.1c0,0,0,0,0,0  c0.1,0,0.1-0.1,0.2-0.1c0.1,0,0.1-0.1,0.2-0.1c0,0,0,0,0,0l22.1-23.2l1.6,4.1c-5,3-8.3,8.5-8.3,14.7c0,9.5,7.7,17.2,17.2,17.2  S90,63.1,90,53.6c0-9.5-7.7-17.2-17.2-17.2c-2.5,0-4.9,0.6-7,1.5L60.5,24l4-3c0.5-0.3,0.5-1,0.2-1.4c-0.3-0.5-1-0.5-1.4-0.2  l-4.6,3.4c-0.4,0.3-0.5,0.8-0.3,1.2l2.4,6.3l-26.8,6.8L31,28.4l8.4-0.1c0.5,0,0.9-0.4,1-0.9c0.1-0.6-0.3-1.1-0.9-1.1l-15-1.6  c-0.1,0-0.2,0-0.2,0c-1.1,0-1.9,0.9-1.9,1.9c0,1.1,0.9,1.9,1.9,1.9l4.6-0.1l3.3,9.9L29,41.2c-3.1-2.9-7.2-4.8-11.8-4.8  C7.7,36.4,0,44.1,0,53.6C0,63.1,7.7,70.8,17.2,70.8z M72.8,38.5c8.3,0,15.1,6.8,15.1,15.1s-6.8,15.1-15.1,15.1S57.7,62,57.7,53.6  c0-5.4,2.8-10.1,7-12.8l3.2,8.5c0,0.1,0.1,0.2,0.2,0.3l4,4.7c0.2,0.2,0.5,0.4,0.8,0.4c0.2,0,0.5-0.1,0.7-0.2c0.4-0.4,0.5-1,0.1-1.4  l-3.8-4.5l-3.3-8.6C68.4,39,70.6,38.5,72.8,38.5z M61.4,32.3l0.2,0.4L40.1,55.4l-5.5-16.3L61.4,32.3z M38.1,56l-3.9-0.6  c0.1-0.6,0.1-1.2,0.1-1.8c0-4.2-1.5-8-3.9-10.9l2.5-2.3L38.1,56z M28.9,44.1c2.1,2.6,3.4,5.9,3.4,9.6c0,0.5,0,1-0.1,1.4l-12.9-2.1  L28.9,44.1z M17.2,38.5c4,0,7.6,1.6,10.3,4.1l-11,10.3c-0.3,0.3-0.4,0.7-0.3,1c0.1,0.4,0.4,0.6,0.8,0.7l14.9,2.4  c-1.6,6.7-7.6,11.7-14.7,11.7C8.8,68.7,2,62,2,53.6S8.8,38.5,17.2,38.5z"/></svg>
