<svg xmlns="http://www.w3.org/2000/svg" xmlns:xlink="http://www.w3.org/1999/xlink" version="1.1" x="0px" y="0px" viewBox="0 0 100 125" enable-background="new 0 0 100 100" xml:space="preserve"><path d="M65.639,47.709l-0.038-0.021c-1.284-0.717-2.182-2.797-2.182-5.059c0-2.264,0.897-4.344,2.183-5.06l0.04-0.023  c0.149-0.094,1.466-0.979,1.705-3.172l0.005-6.008c0-1.178-0.689-2.194-1.686-2.677c-0.164-10.088-4.3-14.952-7.783-17.259  C54.008,5.864,50.162,5.835,50,5.835s-4.008,0.029-7.883,2.596c-3.483,2.307-7.619,7.171-7.783,17.259  c-0.996,0.482-1.686,1.499-1.686,2.677V33.7c0,2.729,1.676,3.804,1.748,3.848l0.036,0.021c1.285,0.716,2.183,2.796,2.183,5.06  c0,2.262-0.897,4.342-2.182,5.059l-0.035,0.02c-0.071,0.045-1.75,1.115-1.75,3.847V91.19c0,1.641,1.334,2.975,2.975,2.975h28.754  c1.641,0,2.975-1.334,2.975-2.975V50.975l-0.005-0.095C67.107,48.686,65.788,47.803,65.639,47.709z M43.014,9.936  c3.434-2.304,6.938-2.351,6.987-2.351c0.053,0,3.484,0.032,6.915,2.305c4.466,2.957,6.816,8.171,6.996,15.502h-1.461v-3.586  c0-1.641-1.334-2.976-2.975-2.976H54.62v-4.026c0-0.437-0.097-0.851-0.267-1.225h1.793v-1.75h-4.501h-3.291h-4.501v1.75h1.793  c-0.17,0.374-0.267,0.788-0.267,1.225v4.026h-4.856c-1.641,0-2.976,1.335-2.976,2.976v3.586h-1.46  C36.267,18.101,38.594,12.902,43.014,9.936z M39.299,25.392v-3.586c0-0.676,0.549-1.226,1.225-1.226h18.953  c0.676,0,1.225,0.55,1.225,1.226v3.586H39.299z M48.354,13.579h3.291c0.676,0,1.225,0.549,1.225,1.225v4.026h-5.74v-4.026  C47.13,14.128,47.679,13.579,48.354,13.579z M65.602,91.19c0,0.675-0.55,1.225-1.225,1.225H35.623c-0.675,0-1.225-0.55-1.225-1.225  V51.554c0-1.653,0.835-2.296,0.916-2.354c1.854-1.054,3.051-3.628,3.051-6.57c0-2.94-1.193-5.512-3.044-6.567  c-0.119-0.088-0.923-0.739-0.923-2.361v-5.334c0-0.675,0.55-1.225,1.225-1.225h28.754c0.675,0,1.225,0.55,1.225,1.225v5.862  c-0.15,1.257-0.809,1.774-0.884,1.83c-1.854,1.055-3.049,3.628-3.049,6.57c0,2.938,1.192,5.508,3.042,6.565  c0.104,0.078,0.742,0.597,0.891,1.83V91.19z"/><path d="M59.396,37.419c-2.686,1.396-9.315,1.303-9.382,1.302L50,39.594l-0.015-0.873c-1.854,0.029-7.15-0.142-9.382-1.302  l-0.808,1.553c2.694,1.4,8.276,1.501,9.823,1.501c0.203,0,0.333-0.002,0.381-0.003c0.048,0.001,0.178,0.003,0.381,0.003  c1.547,0,7.129-0.101,9.823-1.501L59.396,37.419z"/><path d="M50,46.072c-0.414-0.008-7.156-0.086-10.204,1.499l0.404,0.776l0,0l0,0l0.403,0.775c2.686-1.396,9.315-1.303,9.382-1.301  L50,46.95l0.015,0.872c1.854-0.029,7.15,0.142,9.382,1.302l0.808-1.553C57.157,45.986,50.421,46.065,50,46.072z"/></svg>
