<svg xmlns="http://www.w3.org/2000/svg" xmlns:xlink="http://www.w3.org/1999/xlink" version="1.1" x="0px" y="0px" viewBox="0 0 100 125" enable-background="new 0 0 100 100" xml:space="preserve"><path d="M92.84,48.428c-0.985-8.603-3.66-15.187-8.179-20.129c-6.237-6.821-16.059-10.281-29.193-10.281  c-9.196,0-17.371,1.404-24.299,4.173c-5.695,2.275-10.596,5.486-14.563,9.544c-3.226,3.298-7.507,8.9-9.584,16.863  c-1.139,4.365,1.387,6.291,1.737,6.533c3.824,2.857,14.562,7.283,23.471,9.67c4.834,1.297,7.899,3.291,10.865,5.219  c2.126,1.385,4.135,2.691,6.604,3.596c0.864,0.316,1.683,0.471,2.501,0.471c2.417,0,4.277-1.389,6.077-2.73  c1.682-1.254,3.42-2.551,5.707-2.857c0.687-0.092,1.35-0.139,1.972-0.139c4.406,0,7.319,2.285,9.168,7.193  c2.355,6.248,6.218,6.43,6.65,6.43c0.019,0,0.035-0.002,0.047-0.002c3.711-0.006,6.752-2.186,8.796-6.305  c1.489-3,1.925-5.959,1.942-6.084l0.005-0.045C93.138,63.168,93.678,55.75,92.84,48.428z M90.824,69.365  c-0.081,0.521-1.787,10.865-9.019,10.865h-0.008l-0.021,0.002l-0.003,0.875v-0.875c-0.123,0-3.039-0.061-5.013-5.297  c-2.11-5.604-5.646-8.326-10.806-8.326c-0.7,0-1.441,0.053-2.204,0.154c-2.737,0.367-4.747,1.867-6.521,3.189  c-1.715,1.277-3.195,2.383-5.031,2.383c-0.609,0-1.231-0.119-1.899-0.363c-2.284-0.838-4.212-2.092-6.253-3.42  c-2.937-1.91-6.265-4.074-11.366-5.441c-8.594-2.305-19.289-6.693-22.89-9.393L9.75,53.688c-0.077-0.053-1.899-1.336-1.035-4.648  c2.296-8.801,11.447-29.271,46.753-29.271c12.623,0,22.01,3.268,27.902,9.713C92.636,39.616,92.078,55.379,90.824,69.365z"/><path d="M61.444,27.52c-2.402-3.993-4.239-4.512-4.585-4.575l-0.367-0.068l-0.303,0.219c-0.285,0.206-1.723,1.462-2.183,6.099  c-0.135,0.428-0.157,0.871-0.063,1.288c0.301,1.335,1.706,2.231,3.497,2.231l0,0c0.408,0,0.823-0.047,1.234-0.139  c2.273-0.512,3.758-2.232,3.379-3.918C61.959,28.24,61.749,27.849,61.444,27.52z M58.29,30.867c-0.285,0.064-0.57,0.097-0.85,0.097  l0,0c-0.924,0-1.677-0.364-1.79-0.865c-0.028-0.129-0.016-0.27,0.039-0.419l0.039-0.105l0.011-0.112  c0.254-2.668,0.844-3.993,1.205-4.576c0.576,0.372,1.678,1.317,3.049,3.618l0.058,0.097l0.08,0.079  c0.114,0.111,0.187,0.233,0.215,0.362C60.483,29.654,59.634,30.565,58.29,30.867z"/><path d="M72.183,23.012c-0.395-0.161-0.801-0.268-1.208-0.317c-2.369-0.583-4.284-0.891-5.543-0.891  c-0.694,0-1.044,0.093-1.215,0.17l-0.755,0.341l0.299,0.772c0.161,0.416,1.003,1.659,5.323,4.225  c0.325,0.251,0.689,0.46,1.083,0.621c0.558,0.229,1.149,0.349,1.712,0.349l0,0c1.212,0,2.196-0.562,2.567-1.47  c0.29-0.709,0.171-1.54-0.326-2.281C73.687,23.886,72.998,23.347,72.183,23.012z M72.827,26.149  c-0.094,0.229-0.475,0.383-0.948,0.383l0,0c-0.337,0-0.699-0.075-1.048-0.218c-0.262-0.107-0.5-0.246-0.709-0.411l-0.098-0.067  c-1.568-0.929-2.619-1.652-3.319-2.192c0.891,0.107,2.148,0.33,3.904,0.765l0.117,0.021c0.265,0.028,0.53,0.097,0.792,0.204  c0.492,0.201,0.91,0.52,1.148,0.874C72.746,25.624,72.92,25.922,72.827,26.149z"/><path d="M49.597,21.804c-1.258,0-3.174,0.308-5.542,0.891c-0.407,0.05-0.813,0.156-1.208,0.317  c-0.816,0.335-1.504,0.874-1.938,1.519c-0.498,0.741-0.617,1.572-0.326,2.281c0.371,0.907,1.354,1.47,2.567,1.47  c0.562,0,1.153-0.12,1.712-0.349c0.394-0.161,0.758-0.37,1.083-0.621c4.319-2.565,5.162-3.809,5.324-4.225l0.299-0.772l-0.755-0.341  C50.642,21.897,50.292,21.804,49.597,21.804z M45.005,25.835l-0.098,0.067c-0.209,0.165-0.447,0.304-0.708,0.411  c-0.35,0.143-0.712,0.218-1.049,0.218c-0.474,0-0.854-0.153-0.948-0.383c-0.093-0.227,0.081-0.525,0.16-0.643  c0.238-0.354,0.656-0.673,1.148-0.874c0.261-0.107,0.527-0.176,0.792-0.204l0.117-0.021c1.756-0.435,3.013-0.657,3.903-0.765  C47.625,24.183,46.573,24.907,45.005,25.835z"/><path d="M19.964,36.831c-2.132,0-4.234,2.619-5.131,5.082c-0.702,1.928-0.686,3.7,0.044,4.742c0.424,0.605,1.065,0.938,1.807,0.938  c2.131,0,4.234-2.618,5.131-5.082c0.701-1.927,0.685-3.699-0.044-4.741C21.347,37.165,20.706,36.831,19.964,36.831z M20.17,41.913  c-0.818,2.25-2.516,3.931-3.486,3.931c-0.172,0-0.276-0.054-0.373-0.192c-0.32-0.457-0.393-1.604,0.166-3.14  c0.819-2.249,2.517-3.931,3.487-3.931c0.171,0,0.275,0.055,0.373,0.193C20.657,39.23,20.729,40.378,20.17,41.913z"/><path d="M47.592,61.594c-1.592,0-2.887,1.295-2.887,2.887s1.295,2.889,2.887,2.889c1.593,0,2.888-1.297,2.888-2.889  S49.185,61.594,47.592,61.594z M47.592,65.619c-0.627,0-1.137-0.512-1.137-1.139s0.51-1.137,1.137-1.137  c0.628,0,1.138,0.51,1.138,1.137S48.22,65.619,47.592,65.619z"/><path d="M81.09,73.957c0,1.592,1.296,2.887,2.888,2.887s2.888-1.295,2.888-2.887s-1.296-2.887-2.888-2.887  S81.09,72.365,81.09,73.957z M83.978,72.82c0.627,0,1.138,0.51,1.138,1.137s-0.511,1.137-1.138,1.137s-1.138-0.51-1.138-1.137  S83.351,72.82,83.978,72.82z"/></svg>
