<svg xmlns="http://www.w3.org/2000/svg" xmlns:xlink="http://www.w3.org/1999/xlink" version="1.1" x="0px" y="0px" viewBox="0 0 100 125" enable-background="new 0 0 100 100" xml:space="preserve"><path d="M85.746,18.009c-0.07-0.023-7.126-2.405-14.162-4.757C57.215,8.451,56.946,8.451,56.708,8.451H43.292  c-0.181,0-0.728,0-29.038,9.558l-0.596,0.201v47.224l0.596,0.2c0.07,0.024,7.126,2.406,14.163,4.757  c7.249,2.423,10.909,3.622,12.787,4.217c0.1,1.476,1.122,2.7,2.496,3.098v10.344c0,1.93,1.57,3.5,3.5,3.5h5.6  c1.93,0,3.5-1.57,3.5-3.5V77.705c1.377-0.398,2.401-1.628,2.497-3.107c2.88-0.905,9.851-3.191,26.949-8.964l0.596-0.2V18.21  L85.746,18.009z M52.8,89.799h-5.6c-0.965,0-1.75-0.785-1.75-1.75V77.845h9.1v0.902h-6.358v1.75h6.358v1.75h-6.358v1.75h6.358v1.75  h-6.358v1.75h6.358v0.552C54.55,89.014,53.765,89.799,52.8,89.799z M55.335,76.095h-10.67c-0.659,0-1.233-0.373-1.522-0.918  c0.079,0.015,0.114,0.015,0.149,0.015h13.416c0.024,0,0.054,0,0.153-0.021C56.572,75.719,55.997,76.095,55.335,76.095z   M84.592,64.177c-10.804,3.646-26.602,8.932-27.964,9.265H43.372c-1.362-0.333-17.16-5.619-27.964-9.265V19.466  c10.804-3.646,26.602-8.931,27.964-9.265h13.256c1.362,0.334,17.16,5.619,27.964,9.265V64.177z"/><path d="M79.342,25.222l-20.884-7.45v48.1l20.884-7.449V25.222z M77.592,57.188l-17.384,6.2V20.254l17.384,6.201V57.188z"/><path d="M20.658,58.422l20.884,7.449v-48.1l-20.884,7.45V58.422z M22.408,26.455l17.384-6.201v43.135l-17.384-6.2V26.455z"/><rect x="49.125" y="19.071" width="1.75" height="46.434"/></svg>
