<svg xmlns="http://www.w3.org/2000/svg" xmlns:xlink="http://www.w3.org/1999/xlink" version="1.1" x="0px" y="0px" viewBox="0 0 100 125" enable-background="new 0 0 100 100" xml:space="preserve"><g><path d="M82.121,42.272l-7.635-5.476c-0.697-0.5-1.727-0.383-2.294,0.256l-2.869,3.245l-1.215-0.906l0.2-3.71l1.038-16.988   c0.056-0.851-0.593-1.666-1.438-1.807l-9.451-1.572c-0.845-0.141-1.649,0.436-1.79,1.279l-0.923,5.572L55.28,22.11l0.06-5.496   c0.011-0.854-0.682-1.555-1.535-1.555h-9.618c-0.856,0-1.549,0.7-1.538,1.555l0.067,5.791l-0.53,0.078l-1.305-5.289   c-0.204-0.831-1.045-1.314-1.864-1.075l-8.54,2.489c-0.819,0.239-1.338,1.12-1.152,1.954l1.104,4.901l-0.638,0.229l-2.079-4.042   c-0.393-0.762-1.368-1.14-2.168-0.839l-7.35,2.739c-0.801,0.3-1.264,1.218-1.03,2.041l2.201,7.74   c0.267,0.949,0.5,2.528,0.515,3.506l0.141,9.758c0.03,2.074,0.341,5.444,0.689,7.492l0.967,5.676   c0.348,2.048,1.145,5.35,1.771,7.338l3.102,9.818l0.541,6.471c0.07,0.851,0.831,1.549,1.683,1.549h31.055   c0.856,0,1.612-0.698,1.683-1.549l0.319-3.866l2.331-2.079c1.605-1.435,3.84-4.07,4.966-5.856l2.936-4.648   c1.127-1.786,2.757-4.811,3.617-6.721l7.061-15.625C83.095,43.816,82.813,42.771,82.121,42.272z M24.7,35.681l-0.156-0.762   c-0.17-0.817,0.386-1.748,1.234-2.066l10.959-4.127c2.031-0.763,5.485-1.494,7.68-1.622l9.521-0.554   c3.428-0.2,4.714,1.773,2.854,4.384l-3.321,4.657c-0.837,1.175-2.731,1.805-4.214,1.401l-0.137-0.037   c-1.482-0.404-3.958-0.678-5.504-0.61l-16.941,0.745C25.756,37.132,24.87,36.498,24.7,35.681z M62.852,59.996l-7.038,12.231   c-0.934,1.623-3.228,2.902-5.1,2.841L37.92,74.646c-1.931-0.063-4.688-1.173-6.123-2.466l-1.175-1.055   c-1.471-1.325-2.898-4.016-3.168-5.976l-2.127-15.387c-0.345-2.489,1.182-5.505,3.391-6.703l0.812-0.439   c2.15-1.166,5.9-1.903,8.332-1.635l12.527,1.377c3.058,0.337,7.127,2.582,9.043,4.989l2.724,3.417   C64.071,53.178,64.382,57.329,62.852,59.996z"/></g>></svg>
